# xmcd CD database file
#
# Track frame offsets:
#	150
#	13850
#	26548
#	37658
#	53592
#	64780
#	79589
#	97785
#	110388
#	127643
#	141953
#	153332
#	164494
#
# Disc length: 2435 seconds
#
# Revision: 2
# Processed by: cddbd v1.4b41PL1 Copyright (c) Steve Scherf et al.
# Submitted via: Feurio! 1.60 - http://www.feurio.com
#
DISCID=9009810d,aa09810d
DTITLE=Various Artist - Diddi"s Hits
DYEAR=1900
DGENRE=
TTITLE0=Various Artist - Track: 1
TTITLE1=Various Artist - Track: 2
TTITLE2=Various Artist - Track: 3
TTITLE3=Various Artist - Track: 4
TTITLE4=Various Artist - Track: 5
TTITLE5=Various Artist - Track: 6
TTITLE6=Various Artist - Track: 7
TTITLE7=Various Artist - Track: 8
TTITLE8=Various Artist - Track: 9
TTITLE9=Various Artist - Track: 10
TTITLE10=Various Artist - Track: 11
TTITLE11=Various Artist - Track: 12
TTITLE12=Various Artist - Track: 13
EXTD=
EXTT0=
EXTT1=
EXTT2=
EXTT3=
EXTT4=
EXTT5=
EXTT6=
EXTT7=
EXTT8=
EXTT9=
EXTT10=
EXTT11=
EXTT12=
PLAYORDER=
